<svg width="200" height="32" viewBox="0 0 200 32" fill="none" xmlns="http://www.w3.org/2000/svg">
<path d="M200 18.2C200 18.7576 199.964 19.3151 199.893 19.8727H186.658C186.729 20.9879 187.027 21.8242 187.55 22.3818C188.097 22.9151 188.786 23.1818 189.619 23.1818C190.784 23.1818 191.617 22.6485 192.116 21.5818H199.572C199.263 22.9879 198.656 24.2485 197.753 25.3636C196.873 26.4545 195.755 27.3151 194.399 27.9454C193.044 28.5758 191.545 28.8909 189.904 28.8909C187.93 28.8909 186.17 28.4667 184.624 27.6182C183.102 26.7697 181.901 25.5576 181.021 23.9818C180.165 22.4061 179.737 20.5515 179.737 18.4182C179.737 16.2848 180.165 14.4424 181.021 12.8909C181.878 11.3151 183.067 10.103 184.589 9.25454C186.135 8.40605 187.906 7.98181 189.904 7.98181C191.878 7.98181 193.626 8.39393 195.148 9.21817C196.67 10.0424 197.86 11.2303 198.716 12.7818C199.572 14.3091 200 16.1151 200 18.2ZM192.865 16.4182C192.865 15.5454 192.58 14.8667 192.009 14.3818C191.438 13.8727 190.725 13.6182 189.869 13.6182C189.012 13.6182 188.311 13.8606 187.764 14.3454C187.217 14.8061 186.86 15.497 186.694 16.4182H192.865Z" fill="#FDFAF8"/>
<path d="M170.964 28.6364L167.361 23.5091L164.507 28.6364H156.837L163.508 18.0545L156.551 8.23636H164.4L168.003 13.3636L170.892 8.23636H178.562L171.749 18.6364L178.812 28.6364H170.964Z" fill="#FDFAF8"/>
<path d="M155.616 18.2C155.616 18.7576 155.581 19.3151 155.509 19.8727H142.274C142.346 20.9879 142.643 21.8242 143.166 22.3818C143.713 22.9151 144.403 23.1818 145.235 23.1818C146.401 23.1818 147.233 22.6485 147.732 21.5818H155.188C154.879 22.9879 154.273 24.2485 153.369 25.3636C152.489 26.4545 151.371 27.3151 150.016 27.9454C148.66 28.5758 147.162 28.8909 145.521 28.8909C143.547 28.8909 141.787 28.4667 140.241 27.6182C138.719 26.7697 137.518 25.5576 136.638 23.9818C135.782 22.4061 135.354 20.5515 135.354 18.4182C135.354 16.2848 135.782 14.4424 136.638 12.8909C137.494 11.3151 138.683 10.103 140.205 9.25454C141.751 8.40605 143.523 7.98181 145.521 7.98181C147.495 7.98181 149.243 8.39393 150.765 9.21817C152.287 10.0424 153.476 11.2303 154.332 12.7818C155.188 14.3091 155.616 16.1151 155.616 18.2ZM148.482 16.4182C148.482 15.5454 148.196 14.8667 147.625 14.3818C147.055 13.8727 146.341 13.6182 145.485 13.6182C144.629 13.6182 143.927 13.8606 143.38 14.3454C142.833 14.8061 142.476 15.497 142.31 16.4182H148.482Z" fill="#FDFAF8"/>
<path d="M129.118 29C128.2 29 127.458 28.7492 126.893 28.2476C126.346 27.7282 126.072 27.0743 126.072 26.2861C126.072 25.498 126.346 24.8441 126.893 24.3247C127.458 23.8052 128.2 23.5454 129.118 23.5454C130.018 23.5454 130.742 23.8052 131.289 24.3247C131.854 24.8441 132.137 25.498 132.137 26.2861C132.137 27.0564 131.854 27.7013 131.289 28.2208C130.742 28.7402 130.018 29 129.118 29Z" fill="#FDFAF8"/>
<path d="M114.401 8.05453C116.708 8.05453 118.539 8.84241 119.895 10.4182C121.251 11.9697 121.928 14.0788 121.928 16.7454V28.6364H114.936V17.6909C114.936 16.5273 114.639 15.6182 114.044 14.9636C113.45 14.2848 112.653 13.9454 111.654 13.9454C110.608 13.9454 109.787 14.2848 109.193 14.9636C108.598 15.6182 108.301 16.5273 108.301 17.6909V28.6364H101.309V8.23635H108.301V11.1454C108.919 10.2242 109.752 9.48484 110.798 8.92726C111.845 8.34544 113.046 8.05453 114.401 8.05453Z" fill="#FDFAF8"/>
<path d="M87.9402 28.8909C85.9425 28.8909 84.1469 28.4667 82.5534 27.6182C80.9838 26.7697 79.7471 25.5576 78.8433 23.9818C77.9396 22.4061 77.4877 20.5515 77.4877 18.4182C77.4877 16.3091 77.9396 14.4667 78.8433 12.8909C79.7708 11.3151 81.0194 10.103 82.5891 9.25454C84.1825 8.40605 85.9781 7.98181 87.9759 7.98181C89.9736 7.98181 91.7573 8.40605 93.327 9.25454C94.9204 10.103 96.169 11.3151 97.0728 12.8909C98.0003 14.4667 98.4641 16.3091 98.4641 18.4182C98.4641 20.5273 98.0003 22.3818 97.0728 23.9818C96.169 25.5576 94.9204 26.7697 93.327 27.6182C91.7335 28.4667 89.938 28.8909 87.9402 28.8909ZM87.9402 22.7091C88.9153 22.7091 89.7239 22.3454 90.366 21.6182C91.032 20.8667 91.3649 19.8 91.3649 18.4182C91.3649 17.0364 91.032 15.9818 90.366 15.2545C89.7239 14.5273 88.9272 14.1636 87.9759 14.1636C87.0246 14.1636 86.2279 14.5273 85.5857 15.2545C84.9436 15.9818 84.6225 17.0364 84.6225 18.4182C84.6225 19.8242 84.9317 20.8909 85.55 21.6182C86.1684 22.3454 86.9651 22.7091 87.9402 22.7091Z" fill="#FDFAF8"/>
<path d="M64.4483 22.5636V28.6363H61.416C56.3027 28.6363 53.7461 26.0545 53.7461 20.8909V14.1636H51.2845V8.23635H53.7461V3.29089H60.7738V8.23635H64.4126V14.1636H60.7738V21C60.7738 21.5576 60.8928 21.9576 61.1306 22.2C61.3922 22.4424 61.8203 22.5636 62.4149 22.5636H64.4483Z" fill="#FDFAF8"/>
<path d="M29.8294 18.4182C29.8294 16.3091 30.2575 14.4667 31.1136 12.8909C31.9698 11.3151 33.159 10.103 34.681 9.25454C36.2269 8.40605 37.9868 7.98181 39.9608 7.98181C42.5056 7.98181 44.646 8.69696 46.3821 10.1273C48.1183 11.5333 49.2361 13.5091 49.7355 16.0545H42.3153C41.8872 14.7212 41.0548 14.0545 39.8181 14.0545C38.9382 14.0545 38.2366 14.4303 37.7133 15.1818C37.2139 15.9091 36.9642 16.9879 36.9642 18.4182C36.9642 19.8485 37.2139 20.9394 37.7133 21.6909C38.2366 22.4424 38.9382 22.8182 39.8181 22.8182C41.0786 22.8182 41.911 22.1515 42.3153 20.8182H49.7355C49.2361 23.3394 48.1183 25.3151 46.3821 26.7455C44.646 28.1758 42.5056 28.8909 39.9608 28.8909C37.9868 28.8909 36.2269 28.4667 34.681 27.6182C33.159 26.7697 31.9698 25.5576 31.1136 23.9818C30.2575 22.4061 29.8294 20.5515 29.8294 18.4182Z" fill="#FDFAF8"/>
<path d="M23.5287 10.3455C22.292 10.3455 21.2932 10.0061 20.5321 9.32727C19.7948 8.62424 19.4262 7.75152 19.4262 6.70909C19.4262 5.64242 19.7948 4.75758 20.5321 4.05455C21.2932 3.35152 22.292 3 23.5287 3C24.7416 3 25.7167 3.35152 26.454 4.05455C27.215 4.75758 27.5956 5.64242 27.5956 6.70909C27.5956 7.75152 27.215 8.62424 26.454 9.32727C25.7167 10.0061 24.7416 10.3455 23.5287 10.3455ZM26.9891 13.1818V28.6364H19.997V13.1818H26.9891Z" fill="#FDFAF8"/>
<path d="M71.3125 10.3455C70.0758 10.3455 69.0769 10.0061 68.3158 9.32727C67.5786 8.62424 67.2099 7.75152 67.2099 6.70909C67.2099 5.64242 67.5786 4.75758 68.3158 4.05455C69.0769 3.35152 70.0758 3 71.3125 3C72.5254 3 73.5005 3.35152 74.2377 4.05455C74.9988 4.75758 75.3793 5.64242 75.3793 6.70909C75.3793 7.75152 74.9988 8.62424 74.2377 9.32727C73.5005 10.0061 72.5254 10.3455 71.3125 10.3455ZM74.7728 13.1818V28.6364H67.7807V13.1818H74.7728Z" fill="#FDFAF8"/>
<path d="M17.0522 3V8.67273H6.99212V13.1818H14.4123V18.6H6.99212V28.6364H0V3H17.0522Z" fill="#FDFAF8"/>
</svg>
