<svg width="20" height="24" viewBox="0 0 20 24" fill="none" xmlns="http://www.w3.org/2000/svg">
<path fill-rule="evenodd" clip-rule="evenodd" d="M9.41729 0.012313C8.22285 0.0918517 7.12663 0.316199 6.18193 0.674458C3.08951 1.84715 1.06357 4.51723 0.314542 8.40738C0.183782 9.08645 0.0949212 9.78302 0.0249993 10.6771C0.00929175 10.8778 -0.000258822 11.3862 5.34139e-06 12.0077C0.000411746 13.0274 0.0182529 13.4047 0.102521 14.1763C0.532944 18.1173 2.10108 20.9884 4.703 22.5993C4.99055 22.7773 5.60766 23.0896 5.93634 23.2234C7.27518 23.7684 8.85072 24.0366 10.4739 23.996C12.6071 23.9426 14.2778 23.4754 15.6759 22.5413C16.3533 22.0887 17.064 21.4447 17.5384 20.8538C18.9336 19.1155 19.3807 16.945 18.7836 14.808C18.34 13.2205 17.1453 11.8685 15.493 11.0844C15.3757 11.0287 15.2771 10.9815 15.2738 10.9795C15.2706 10.9775 15.2587 10.8592 15.2473 10.7165C15.1567 9.57829 14.8535 8.53228 14.3942 7.77331C14.151 7.37136 13.7727 6.92495 13.4407 6.64824C12.8385 6.14626 12.0792 5.81114 11.2258 5.67058C9.97344 5.46436 8.73185 5.64284 7.73707 6.17208C7.26059 6.42559 6.93814 6.67012 6.55163 7.07106C6.34374 7.28671 5.94253 7.78944 5.94253 7.83428C5.94253 7.84432 6.50227 8.24541 7.31691 8.81913L7.60414 9.02143L7.71517 8.86971C7.84091 8.69783 8.07262 8.45442 8.22842 8.33046C8.48996 8.12239 8.87464 7.93071 9.2349 7.82894C9.74093 7.68595 10.4637 7.6694 11.0328 7.78772C12.0297 7.99504 12.6743 8.59181 13.0018 9.61056C13.0755 9.83976 13.1857 10.3184 13.1689 10.3358C13.1634 10.3414 13.0189 10.3265 12.8477 10.3027C12.2187 10.215 12.0513 10.2057 11.1242 10.2061C10.3892 10.2065 10.1629 10.2135 9.91514 10.2437C8.06685 10.4687 6.70708 11.3071 6.06143 12.6197C5.63964 13.4772 5.56435 14.5691 5.86142 15.5208C5.95292 15.8139 6.20111 16.3102 6.37767 16.5531C6.7629 17.0831 7.25309 17.4909 7.87696 17.8004C8.32171 18.0211 8.79868 18.1701 9.33601 18.2562C9.66851 18.3095 10.6031 18.3092 10.9515 18.2557C12.418 18.0306 13.4667 17.3621 14.2285 16.1669C14.6573 15.4942 14.9664 14.6068 15.1352 13.5642L15.1795 13.2908L15.3779 13.4296C16.2382 14.0311 16.7511 14.805 16.9452 15.7948C17.196 17.0736 16.8718 18.3677 16.0303 19.4461C15.8502 19.6769 15.4082 20.1245 15.1476 20.3398C14.0605 21.2382 12.8223 21.7022 11.1344 21.8438C10.6695 21.8828 10.064 21.8923 9.63066 21.8675C8.05765 21.7775 6.75522 21.4036 5.67195 20.7311C3.70394 19.5094 2.51254 17.2875 2.12345 14.1135C2.03349 13.3796 2.01193 12.9703 2.01193 11.9972C2.01193 11.024 2.03349 10.6147 2.12345 9.8809C2.22968 9.01423 2.40269 8.18357 2.62243 7.48514C3.458 4.82939 5.07021 3.1649 7.47649 2.47372C9.39147 1.92365 11.7858 2.0113 13.5587 2.69633C15.6767 3.51472 17.1146 5.12896 17.887 7.55554C17.9548 7.76849 18.0223 7.98108 18.0369 8.02798L18.0635 8.11321L19.0278 7.84757C19.5582 7.70144 19.9954 7.57174 19.9994 7.55931C20.0148 7.51154 19.74 6.63399 19.5813 6.22455C18.7664 4.12134 17.4628 2.49025 15.7583 1.44126C14.4925 0.662263 13.0317 0.203344 11.3071 0.0428629C10.8874 0.003806 9.8072 -0.0136691 9.41729 0.012313ZM11.8974 12.3332C12.3207 12.367 12.8112 12.4351 13.1207 12.5032L13.2172 12.5245V12.616C13.2172 12.7528 13.1624 13.1675 13.1049 13.4668C12.9413 14.3169 12.6662 14.9395 12.2584 15.3824C11.8489 15.827 11.3681 16.0601 10.6596 16.1574C9.97252 16.2517 9.25079 16.1465 8.71594 15.874C8.12103 15.571 7.78428 15.1244 7.70863 14.5382C7.607 13.7508 8.05893 13.0443 8.9116 12.6574C9.25965 12.4994 9.80118 12.3744 10.3114 12.3342C10.631 12.3091 11.5865 12.3085 11.8974 12.3332Z" fill="#161210"/>
</svg>
